<svg width="81" height="80" viewBox="0 0 81 80" fill="none" xmlns="http://www.w3.org/2000/svg">
<g clip-path="url(#clip0_3062_3540)">
<path d="M40.5131 0C23.8134 0 18.9294 0.0172344 17.9801 0.0959998C14.553 0.380946 12.4205 0.920693 10.0972 2.07768C8.30682 2.96702 6.89476 3.99786 5.50117 5.44291C2.9632 8.07821 1.42502 11.3203 0.868194 15.1742C0.597489 17.0451 0.518723 17.4267 0.502728 26.9832C0.49659 30.1687 0.502728 34.361 0.502728 39.9843C0.502728 56.6749 0.521172 61.5554 0.601177 62.5031C0.87805 65.8388 1.40102 67.9374 2.50851 70.233C4.62504 74.6272 8.66733 77.926 13.4295 79.1569C15.0785 79.5815 16.8997 79.8154 19.2377 79.9261C20.2283 79.9692 30.3248 80 40.4275 80C50.5303 80 60.633 79.9877 61.5989 79.9385C64.3061 79.811 65.8781 79.6 67.6163 79.1507C72.4092 77.9137 76.3777 74.6642 78.5373 70.2084C79.6232 67.9682 80.1739 65.7895 80.4231 62.628C80.4772 61.9388 80.5 50.9489 80.5 39.9739C80.5 28.9969 80.4754 18.0274 80.4212 17.3381C80.169 14.1255 79.6183 11.9653 78.4973 9.68203C77.5775 7.81295 76.5561 6.41712 75.0734 4.98997C72.4271 2.46174 69.1908 0.923142 65.3343 0.366796C63.4657 0.0966049 63.0934 0.0165997 53.5321 0H40.5131Z" fill="url(#paint0_radial_3062_3540)"/>
<path d="M40.5131 0C23.8134 0 18.9294 0.0172344 17.9801 0.0959998C14.553 0.380946 12.4205 0.920693 10.0972 2.07768C8.30682 2.96702 6.89476 3.99786 5.50117 5.44291C2.9632 8.07821 1.42502 11.3203 0.868194 15.1742C0.597489 17.0451 0.518723 17.4267 0.502728 26.9832C0.49659 30.1687 0.502728 34.361 0.502728 39.9843C0.502728 56.6749 0.521172 61.5554 0.601177 62.5031C0.87805 65.8388 1.40102 67.9374 2.50851 70.233C4.62504 74.6272 8.66733 77.926 13.4295 79.1569C15.0785 79.5815 16.8997 79.8154 19.2377 79.9261C20.2283 79.9692 30.3248 80 40.4275 80C50.5303 80 60.633 79.9877 61.5989 79.9385C64.3061 79.811 65.8781 79.6 67.6163 79.1507C72.4092 77.9137 76.3777 74.6642 78.5373 70.2084C79.6232 67.9682 80.1739 65.7895 80.4231 62.628C80.4772 61.9388 80.5 50.9489 80.5 39.9739C80.5 28.9969 80.4754 18.0274 80.4212 17.3381C80.169 14.1255 79.6183 11.9653 78.4973 9.68203C77.5775 7.81295 76.5561 6.41712 75.0734 4.98997C72.4271 2.46174 69.1908 0.923142 65.3343 0.366796C63.4657 0.0966049 63.0934 0.0165997 53.5321 0H40.5131Z" fill="url(#paint1_radial_3062_3540)"/>
<path d="M40.5131 0C23.8134 0 18.9294 0.0172344 17.9801 0.0959998C14.553 0.380946 12.4205 0.920693 10.0972 2.07768C8.30682 2.96702 6.89476 3.99786 5.50117 5.44291C2.9632 8.07821 1.42502 11.3203 0.868194 15.1742C0.597489 17.0451 0.518723 17.4267 0.502728 26.9832C0.49659 30.1687 0.502728 34.361 0.502728 39.9843C0.502728 56.6749 0.521172 61.5554 0.601177 62.5031C0.87805 65.8388 1.40102 67.9374 2.50851 70.233C4.62504 74.6272 8.66733 77.926 13.4295 79.1569C15.0785 79.5815 16.8997 79.8154 19.2377 79.9261C20.2283 79.9692 30.3248 80 40.4275 80C50.5303 80 60.633 79.9877 61.5989 79.9385C64.3061 79.811 65.8781 79.6 67.6163 79.1507C72.4092 77.9137 76.3777 74.6642 78.5373 70.2084C79.6232 67.9682 80.1739 65.7895 80.4231 62.628C80.4772 61.9388 80.5 50.9489 80.5 39.9739C80.5 28.9969 80.4754 18.0274 80.4212 17.3381C80.169 14.1255 79.6183 11.9653 78.4973 9.68203C77.5775 7.81295 76.5561 6.41712 75.0734 4.98997C72.4271 2.46174 69.1908 0.923142 65.3343 0.366796C63.4657 0.0966049 63.0934 0.0165997 53.5321 0H40.5131Z" fill="url(#paint2_radial_3062_3540)"/>
<path d="M40.5131 0C23.8134 0 18.9294 0.0172344 17.9801 0.0959998C14.553 0.380946 12.4205 0.920693 10.0972 2.07768C8.30682 2.96702 6.89476 3.99786 5.50117 5.44291C2.9632 8.07821 1.42502 11.3203 0.868194 15.1742C0.597489 17.0451 0.518723 17.4267 0.502728 26.9832C0.49659 30.1687 0.502728 34.361 0.502728 39.9843C0.502728 56.6749 0.521172 61.5554 0.601177 62.5031C0.87805 65.8388 1.40102 67.9374 2.50851 70.233C4.62504 74.6272 8.66733 77.926 13.4295 79.1569C15.0785 79.5815 16.8997 79.8154 19.2377 79.9261C20.2283 79.9692 30.3248 80 40.4275 80C50.5303 80 60.633 79.9877 61.5989 79.9385C64.3061 79.811 65.8781 79.6 67.6163 79.1507C72.4092 77.9137 76.3777 74.6642 78.5373 70.2084C79.6232 67.9682 80.1739 65.7895 80.4231 62.628C80.4772 61.9388 80.5 50.9489 80.5 39.9739C80.5 28.9969 80.4754 18.0274 80.4212 17.3381C80.169 14.1255 79.6183 11.9653 78.4973 9.68203C77.5775 7.81295 76.5561 6.41712 75.0734 4.98997C72.4271 2.46174 69.1908 0.923142 65.3343 0.366796C63.4657 0.0966049 63.0934 0.0165997 53.5321 0H40.5131Z" fill="url(#paint3_radial_3062_3540)"/>
<path d="M40.5166 10.2725C32.4385 10.2725 31.4247 10.3077 28.2519 10.452C25.0854 10.5969 22.9239 11.0979 21.0326 11.8329C19.0763 12.5921 17.4168 13.6076 15.7635 15.2603C14.109 16.9124 13.0927 18.5706 12.3305 20.5249C11.5931 22.4154 11.0911 24.5758 10.9486 27.7388C10.8067 30.9092 10.7695 31.9228 10.7695 39.995C10.7695 48.0671 10.8055 49.0771 10.9492 52.2474C11.0949 55.4117 11.5962 57.5715 12.3311 59.4614C13.0915 61.4162 14.1077 63.0745 15.7617 64.7266C17.4144 66.3799 19.0738 67.3979 21.0289 68.157C22.9214 68.8921 25.0835 69.393 28.2494 69.5379C31.4222 69.6822 32.4354 69.7175 40.5129 69.7175C48.5916 69.7175 49.6023 69.6822 52.7751 69.5379C55.9417 69.393 58.1056 68.8921 59.9981 68.157C61.9538 67.3979 63.6108 66.3799 65.2635 64.7266C66.918 63.0745 67.9343 61.4163 68.6965 59.462C69.4277 57.5715 69.9297 55.4111 70.0784 52.2481C70.2209 49.0777 70.2581 48.0671 70.2581 39.995C70.2581 31.9228 70.2209 30.9098 70.0784 27.7394C69.9297 24.5752 69.4277 22.4154 68.6965 20.5255C67.9343 18.5706 66.918 16.9123 65.2635 15.2603C63.6089 13.6069 61.9544 12.5914 59.9962 11.8329C58.1 11.0979 55.9373 10.5969 52.7708 10.452C49.598 10.3077 48.5879 10.2725 40.5073 10.2725H40.5166ZM37.8482 15.6287C38.6402 15.6275 39.5239 15.6287 40.5166 15.6287C48.4584 15.6287 49.3997 15.6572 52.5359 15.7996C55.436 15.9321 57.01 16.4163 58.0585 16.8232C59.4466 17.3619 60.4362 18.0059 61.4766 19.0462C62.5177 20.0865 63.1621 21.0772 63.7025 22.4643C64.1096 23.5107 64.5948 25.0836 64.7268 27.9815C64.8694 31.1147 64.9004 32.056 64.9004 39.9882C64.9004 47.9203 64.8694 48.8616 64.7268 51.9948C64.5942 54.8928 64.1096 56.4656 63.7025 57.5121C63.1634 58.8991 62.5177 59.8868 61.4766 60.9264C60.4356 61.9667 59.4472 62.6107 58.0585 63.1494C57.0112 63.5581 55.436 64.0411 52.5359 64.1736C49.4003 64.316 48.4584 64.347 40.5166 64.347C32.5742 64.347 31.6329 64.316 28.4973 64.1736C25.5972 64.0399 24.0232 63.5556 22.9741 63.1488C21.586 62.6101 20.5945 61.9661 19.5535 60.9258C18.5124 59.8855 17.868 58.8973 17.3276 57.5096C16.9205 56.4631 16.4353 54.8903 16.3033 51.9923C16.1607 48.8591 16.1322 47.9179 16.1322 39.9807C16.1322 32.0436 16.1607 31.1073 16.3033 27.9741C16.4359 25.0761 16.9205 23.5033 17.3276 22.4556C17.8667 21.0685 18.5124 20.0778 19.5535 19.0375C20.5945 17.9972 21.586 17.3532 22.9741 16.8133C24.0226 16.4046 25.5972 15.9216 28.4973 15.7885C31.2412 15.6646 32.3046 15.6275 37.8483 15.6212L37.8482 15.6287ZM56.394 20.5639C54.4234 20.5639 52.8246 22.1596 52.8246 24.1293C52.8246 26.0985 54.4234 27.6961 56.394 27.6961C58.3646 27.6961 59.9634 26.0985 59.9634 24.1293C59.9634 22.1602 58.3646 20.5627 56.394 20.5627L56.394 20.5639ZM40.5166 24.7312C32.0809 24.7312 25.2415 31.5655 25.2415 39.995C25.2415 48.4244 32.0809 55.2556 40.5166 55.2556C48.9523 55.2556 55.7892 48.4244 55.7892 39.995C55.7892 31.5655 48.9517 24.7312 40.516 24.7312H40.5166ZM40.5166 30.0875C45.9921 30.0875 50.4315 34.5229 50.4315 39.995C50.4315 45.4664 45.9921 49.9025 40.5166 49.9025C35.0405 49.9025 30.6017 45.4664 30.6017 39.995C30.6017 34.5229 35.0405 30.0875 40.5166 30.0875Z" fill="white"/>
</g>
<defs>
<radialGradient id="paint0_radial_3062_3540" cx="0" cy="0" r="1" gradientUnits="userSpaceOnUse" gradientTransform="translate(77.9168 37.497) rotate(164.25) scale(51.1155 36.8262)">
<stop stop-color="#FF005F"/>
<stop offset="1" stop-color="#FC01D8"/>
</radialGradient>
<radialGradient id="paint1_radial_3062_3540" cx="0" cy="0" r="1" gradientUnits="userSpaceOnUse" gradientTransform="translate(21.7494 86.1616) rotate(-90) scale(63.8575 67.7515)">
<stop stop-color="#FFCC00"/>
<stop offset="0.1242" stop-color="#FFCC00"/>
<stop offset="0.5672" stop-color="#FE4A05"/>
<stop offset="0.6942" stop-color="#FF0F3F"/>
<stop offset="1" stop-color="#FE0657" stop-opacity="0"/>
</radialGradient>
<radialGradient id="paint2_radial_3062_3540" cx="0" cy="0" r="1" gradientUnits="userSpaceOnUse" gradientTransform="translate(42.5216 78.8718) rotate(-59.8703) scale(26.4056 34.3772)">
<stop stop-color="#FFCC00"/>
<stop offset="1" stop-color="#FFCC00" stop-opacity="0"/>
</radialGradient>
<radialGradient id="paint3_radial_3062_3540" cx="0" cy="0" r="1" gradientUnits="userSpaceOnUse" gradientTransform="translate(11.3543 3.25758) rotate(164.274) scale(50.5485 17.2218)">
<stop stop-color="#780CFF"/>
<stop offset="1" stop-color="#820BFF" stop-opacity="0"/>
</radialGradient>
<clipPath id="clip0_3062_3540">
<rect width="80" height="80" fill="white" transform="translate(0.5)"/>
</clipPath>
</defs>
</svg>
