<svg width="81" height="80" viewBox="0 0 81 80" fill="none" xmlns="http://www.w3.org/2000/svg">
<g clip-path="url(#clip0_3062_3526)">
<path d="M40.5 80C62.5914 80 80.5 62.0914 80.5 40C80.5 17.9086 62.5914 0 40.5 0C18.4086 0 0.5 17.9086 0.5 40C0.5 62.0914 18.4086 80 40.5 80Z" fill="#4CC764"/>
<path d="M67.1181 37.6727C67.1181 25.7455 55.1909 16 40.3545 16C25.8091 16 13.7363 25.7455 13.7363 37.6727C13.7363 48.4364 23.1909 57.3091 36.1363 59.0545C37.0091 59.2 38.1727 59.6364 38.4636 60.3636C38.7545 61.0909 38.6091 62.1091 38.6091 62.8364C38.6091 62.8364 38.3181 64.7273 38.1727 65.1636C38.0272 65.8909 37.5909 67.7818 40.5 66.6182C43.4091 65.4545 55.9181 57.6 61.4454 51.0545C65.3727 46.6909 67.1181 42.4727 67.1181 37.6727Z" fill="white"/>
<path d="M58.2451 44.5089C58.536 44.5089 58.8269 44.218 58.8269 43.9271V42.1816C58.8269 41.8907 58.536 41.5998 58.2451 41.5998H53.1542V39.5634H58.2451C58.536 39.5634 58.8269 39.2725 58.8269 38.9816V37.0907C58.8269 36.7998 58.536 36.5089 58.2451 36.5089H53.1542V34.4725H58.2451C58.536 34.4725 58.8269 34.1816 58.8269 33.8907V31.9998C58.8269 31.7089 58.536 31.418 58.2451 31.418H50.6814C50.3905 31.418 50.0996 31.7089 50.0996 31.9998V43.6362C50.0996 43.9271 50.3905 44.218 50.6814 44.218H58.2451V44.5089Z" fill="#4CC764"/>
<path d="M30.6083 44.509C30.8993 44.509 31.1902 44.2181 31.1902 43.9272V42.1817C31.1902 41.8908 30.8993 41.5999 30.6083 41.5999H25.5174V32.2908C25.5174 31.9999 25.2265 31.709 24.9356 31.709H23.0447C22.7538 31.709 22.4629 31.9999 22.4629 32.2908V43.9272C22.4629 44.2181 22.7538 44.509 23.0447 44.509H30.6083Z" fill="#4CC764"/>
<path d="M35.1173 31.8535H33.2263C32.9354 31.8535 32.6445 32.1444 32.6445 32.4353V44.0717C32.6445 44.3626 32.9354 44.6535 33.2263 44.6535H35.1173C35.4082 44.6535 35.6991 44.3626 35.6991 44.0717V32.4353C35.5536 32.1444 35.4082 31.8535 35.1173 31.8535Z" fill="#4CC764"/>
<path d="M47.9171 31.8535H46.0262C45.7353 31.8535 45.4444 32.1444 45.4444 32.4353V39.2717L40.0626 31.999H38.1717C37.8808 31.999 37.5898 32.2899 37.5898 32.5808V44.2172C37.5898 44.5081 37.8808 44.799 38.1717 44.799H39.7717C40.0626 44.799 40.3535 44.5081 40.3535 44.2172V37.2353L45.7353 44.5081L45.8808 44.6535H46.0262H47.9171C48.208 44.6535 48.4989 44.3626 48.4989 44.0717V32.4353C48.4989 32.1444 48.208 31.8535 47.9171 31.8535Z" fill="#4CC764"/>
</g>
<defs>
<clipPath id="clip0_3062_3526">
<rect width="80" height="80" fill="white" transform="translate(0.5)"/>
</clipPath>
</defs>
</svg>
